<svg xmlns="http://www.w3.org/2000/svg" viewBox="0 0 400 300" fill="none">
  <!-- Background circles -->
  <circle cx="200" cy="150" r="120" fill="rgba(255,255,255,0.1)"/>
  <circle cx="200" cy="150" r="80" fill="rgba(255,255,255,0.05)"/>
  
  <!-- Workshop elements -->
  <rect x="150" y="100" width="100" height="60" rx="10" fill="rgba(255,255,255,0.2)" stroke="rgba(255,255,255,0.3)" stroke-width="2"/>
  
  <!-- People icons -->
  <circle cx="170" cy="130" r="8" fill="rgba(255,255,255,0.8)"/>
  <circle cx="190" cy="130" r="8" fill="rgba(255,255,255,0.8)"/>
  <circle cx="210" cy="130" r="8" fill="rgba(255,255,255,0.8)"/>
  
  <!-- Chart elements -->
  <rect x="120" y="180" width="20" height="40" fill="rgba(255,255,255,0.6)"/>
  <rect x="150" y="170" width="20" height="50" fill="rgba(255,255,255,0.6)"/>
  <rect x="180" y="160" width="20" height="60" fill="rgba(255,255,255,0.6)"/>
  <rect x="210" y="175" width="20" height="45" fill="rgba(255,255,255,0.6)"/>
  <rect x="240" y="185" width="20" height="35" fill="rgba(255,255,255,0.6)"/>
  
  <!-- Connection lines -->
  <line x1="200" y1="80" x2="200" y2="60" stroke="rgba(255,255,255,0.4)" stroke-width="2"/>
  <line x1="200" y1="60" x2="180" y2="40" stroke="rgba(255,255,255,0.4)" stroke-width="2"/>
  <line x1="200" y1="60" x2="220" y2="40" stroke="rgba(255,255,255,0.4)" stroke-width="2"/>
  
  <!-- Floating elements -->
  <circle cx="80" cy="80" r="15" fill="rgba(255,255,255,0.1)"/>
  <circle cx="320" cy="100" r="12" fill="rgba(255,255,255,0.1)"/>
  <circle cx="90" cy="220" r="10" fill="rgba(255,255,255,0.1)"/>
  <circle cx="310" cy="200" r="18" fill="rgba(255,255,255,0.1)"/>
</svg>
